<?xml version="1.0" standalone="no"?><!DOCTYPE svg PUBLIC "-//W3C//DTD SVG 1.1//EN" "http://www.w3.org/Graphics/SVG/1.1/DTD/svg11.dtd"><svg t="1532658328440" class="icon" style="" viewBox="0 0 1024 1024" version="1.1" xmlns="http://www.w3.org/2000/svg" p-id="4371" xmlns:xlink="http://www.w3.org/1999/xlink" width="200" height="200"><defs><style type="text/css"></style></defs><path d="M342.8 939.05c10.35 20.7 35.55 28.8 55.8 18.45l301.05-150.75-383.4 79.65C332 917.9 342.8 939.05 342.8 939.05z" p-id="4372"></path><path d="M170 760.85c5.4 29.7 9 49.95 9 49.95 4.05 22.5 25.65 37.8 48.6 33.75l470.25-83.7L170 760.85z" p-id="4373"></path><path d="M933.65 516.05l0-177.3L89.9 338.75l0 322.65c0 23.85 18.9 43.2 42.3 43.2l436.5 0c-0.45-4.95 303.75 0 308.7-0.45 43.2-1.35 56.7-31.95 56.25-56.25C932.3 601.55 935 583.1 933.65 516.05zM850.4 471.5l-24.75 105.75c-1.35 6.75-7.65 12.15-14.4 13.05 0 0-0.45 0-0.45 0l-53.1 0c-7.2 0-12.15-5.85-10.35-13.5l3.15-13.95 1.8 0 1.35-4.5-1.8 0 2.25-10.35 6.75 0c1.35 0 2.25 0 3.15 0 0.9 0 1.35-0.45 2.25-0.9 0.9-0.45 1.35-0.9 1.8-1.35 0.45-0.45 0.9-1.8 1.8-3.6l3.15-10.8-9.45 0c0 0-3.15 0.45-4.05 0.9-0.45 0-0.45 0.45-0.9 0.45l2.25-9.45c0.45 0 0.45 0 0.9 0l0.45-0.45c0.45-2.7 0.45-3.6 1.35-7.65l0.45-1.8c0.9-3.15 1.35-4.95 0.9-6.75l8.55-36c1.35-6.75 7.65-12.15 14.4-13.5l-2.25 0c-6.75 0.9-12.6 6.75-14.4 13.5l-7.65 33.75c-0.45-0.45-1.35-0.45-1.8-0.45-0.9 0-2.7 0.45-4.5 0.9-0.45 0.45-0.9 0.45-1.8 0.9l0.45-1.8-0.45-0.45c-3.15 0.9-4.05 0.9-7.2 1.35l-0.45 0c-0.45 3.15-0.9 5.4-1.8 10.8-0.45 2.25-0.9 4.5-1.35 6.3l0 0.45c3.15 0 4.05 0 6.75 0l0.45-0.45c0.45-1.8 0.45-2.25 1.35-5.85 0.45-1.8 1.35-5.4 1.35-6.75 0.9-0.45 1.35-0.45 1.8-0.45 1.35 0 1.35 1.35 1.35 1.8 0 0.9-0.45 4.05-1.35 6.3l-0.45 1.8c-0.45 1.35-0.45 2.25-0.9 3.6l0 0c1.35 0 2.7 0 3.6 0l-1.8 8.1-5.4 0-8.1 27.45c-0.45 0.9-0.45 1.8-0.45 2.25 0 0.45 0.45 0.9 0.9 1.35 0.45 0.45 1.35 0.45 1.8 0.45 0.9 0 1.8 0 3.15 0l0.45 0-3.15 13.95c-1.8 7.2 2.7 13.5 10.35 13.5l-52.2 0c-0.45 0-0.9 0-1.35 0l-53.1 0c-7.2 0-12.15-5.85-10.35-13.5l0 0 24.75-105.75c1.8-7.2 9-13.5 16.65-13.5l49.95 0c0.45 0 0.9 0 1.35 0l60.75 0c0.9 0 1.35 0 1.8 0l45.9 0C847.7 458 852.2 463.85 850.4 471.5zM749.6 556.55L749.6 556.55l2.7-8.55 0 0-2.25 10.35c-0.45 0-0.45-0.45-0.45-0.45C749.15 557.9 749.15 557.45 749.6 556.55zM753.2 544.4L753.2 544.4 753.2 544.4 753.2 544.4 753.2 544.4 753.2 544.4zM763.55 542.6L763.55 542.6 763.55 542.6l-0.45 1.8c0 0-0.45 0-1.35 0l-5.85 0 0.45-1.8L763.55 542.6zM756.8 539l0.9-3.15 8.1 0-0.9 2.25c0 0-4.5 0-5.4 0C758.15 538.55 757.25 539 756.8 539L756.8 539z" p-id="4374"></path><path d="M933.65 129.05c0-23.85-18.9-43.2-42.3-43.2L132.2 85.85c-23.4 0-42.3 19.35-42.3 43.2l0 97.2 843.75 0L933.65 129.05z" p-id="4375"></path><path d="M774.8 516.95c0 0 0.9-4.05 0.9-4.5 0 0 0.45-0.45 0.45-0.45l0.45 0c4.5 0 9.45 0 13.05-2.7 2.7-1.8 4.5-4.95 5.4-8.1 0-0.9 0.45-1.8 0.45-2.7 0-1.35-0.45-2.7-0.9-3.6-1.8-2.7-5.85-2.7-10.35-2.7 0 0-2.25 0-2.25 0l0 0c-5.85 0-8.1 0-9 0 0 0.45-0.45 1.35-0.45 1.35s-2.25 9.45-2.25 9.45c0 0-4.95 20.25-4.95 21.15 4.95 0 7.2 0 8.1 0C773.9 522.35 774.8 516.95 774.8 516.95zM777.5 506.6c0 0 2.25-9.45 2.25-9.45l0-0.45 0-0.45 0.9 0c0 0 4.5 0.45 4.5 0.45 1.8 0.9 2.7 2.7 1.8 4.95l0 0c-0.45 2.25-1.8 4.05-3.6 4.95-1.35 0.9-3.15 0.9-4.95 0.9l-1.35 0L777.5 506.6z" p-id="4376"></path><path d="M791 557L791 557 791 557Z" p-id="4377"></path><path d="M791 557l-1.8 0 6.3-21.15 2.25 0 0.9-2.25 0 2.25c0 1.35 0.9 2.7 4.05 2.7l3.6 0 1.35-4.05-1.35 0c-0.9 0-1.35 0-0.9-0.45l0-2.7-6.75 0 0 0c-2.25 0-8.55 0-9.9 0.45-1.8 0.45-3.15 1.8-3.15 1.8l0.45-2.25-6.3 0-1.35 4.5-6.75 21.6-1.35 0-1.35 4.05 12.6 0-0.45 1.35 6.3 0 0.45-1.35 1.8 0L791 557zM783.35 557l-4.95 0 1.35-4.95 4.95 0L783.35 557zM786.05 548L786.05 548c0 0-1.35 0-2.7 0.45-0.9 0.45-2.7 1.35-2.7 1.35l1.8-5.85 4.95 0L786.05 548zM786.05 540.35L786.05 540.35c-0.9 0.45-2.7 0.9-2.7 0.9l1.8-5.4 4.95 0-1.35 4.05C788.3 539.9 786.95 539.9 786.05 540.35z" p-id="4378"></path><path d="M763.1 550.7L763.1 550.7c0 0.45 0 0.45-0.45 0.45 0 0-0.45 0-0.9 0l-1.35 0 0-2.25-5.85 0-0.45 11.25c0 0.9 0 1.35 0.45 1.8 0.45 0.45 2.25 0.45 4.95 0.45l3.6 0 1.35-4.5-3.15 0-0.9 0c0 0-0.45 0-0.45-0.45 0 0-0.45 0-0.45-0.9l0-3.15 3.15 0c1.8 0 2.7-0.45 3.15-0.9 0.45-0.45 0.9-1.35 0.9-1.8l0.45-2.7-4.5 0L763.1 550.7z" p-id="4379"></path><path d="M791 514.7L791 514.7c-0.45 2.25-1.35 7.2 2.7 8.55 1.35 0.45 2.7 0.9 3.6 0.45 1.35 0 2.25-0.9 3.6-1.8 0 0.45 0 0.9-0.45 0.9l0 0.45c3.15 0 4.05 0 7.2 0l0.45 0c0.45-2.7 0.9-5.4 2.25-10.8 0.45-2.7 1.35-4.95 1.8-7.65l0-0.45c-3.15 0.45-4.05 0.9-7.2 1.35l-0.45 0c0 0.45 0 0.45 0 0.9-0.45-0.9-1.35-1.35-2.25-1.8-1.35-0.45-4.95 0-7.65 2.7C792.35 509.75 791.45 512.45 791 514.7zM797.75 514.7L797.75 514.7c0.9-3.15 1.35-5.4 3.6-5.4 1.35 0 2.25 1.35 1.8 3.15 0 0.45-0.45 0.9-0.45 1.8 0 0.9-0.45 1.8-0.45 2.7-0.45 0.45-0.45 1.35-0.9 1.8-0.45 0.9-1.8 1.35-2.7 1.35 0 0-1.35 0-1.35-1.8C797.75 516.95 797.75 516.05 797.75 514.7z" p-id="4380"></path><path d="M731.6 523.7c3.15 0 6.3-0.9 8.55-3.15 1.8-1.8 2.7-4.95 2.7-6.3 0.9-4.05 0-5.85-0.9-7.2-1.35-1.8-4.05-2.25-6.3-2.25-1.35 0-4.95 0-8.1 2.7-2.25 1.8-3.15 4.5-3.6 6.75l0 0c-0.45 2.7-1.35 7.2 2.7 8.55C728.45 523.7 730.25 523.7 731.6 523.7zM731.15 514.7c0.9-3.15 1.35-5.85 3.6-5.85 1.8 0 1.8 1.8 0.9 4.95 0 0.45-0.9 3.15-1.35 4.5-0.45 0.9-1.35 1.35-1.8 1.35 0 0-1.35 0-1.35-1.8C730.7 516.5 731.15 515.6 731.15 514.7L731.15 514.7z" p-id="4381"></path><path d="M728.45 544.85L728.45 544.85 728.45 544.85Z" p-id="4382"></path><path d="M728.45 544.85l3.6 0-0.9 3.6-4.05 0-1.35 4.05 4.05 0-2.25 7.2c-0.45 0.9 0 1.35 0.45 1.8 0.45 0.45 0.45 0.9 1.35 0.9 0.45 0 1.35 0.45 1.8 0.45l7.65 0 1.35-4.5-3.6 0.45c-0.45 0-2.7 0-2.25-0.9l1.8-5.4 6.75 0 1.35-4.05-6.75 0 0.9-3.6 6.75 0 1.35-4.05-16.65 0L728.45 544.85z" p-id="4383"></path><path d="M741.95 531.35L741.95 531.35l-6.75 0-1.8 3.15c-0.45 0.9-0.9 1.35-0.9 1.35-0.45 0-0.9 0.45-1.35 0.45l-0.9 0-1.35 4.05 3.15 0c1.35 0 2.7-0.45 3.15-0.9 0.45-0.45 0.9 0 1.35-0.45l0.9-0.9 9.45 0 1.35-4.05-6.75 0L741.95 531.35z" p-id="4384"></path><path d="M722.6 508.4L722.6 508.4 722.6 508.4Z" p-id="4385"></path><path d="M722.6 508.4c-1.8 0.45-2.7 0.45-3.6 0.45-0.9 0-2.25 0.45-3.6 0.45l0 0 0 0c0 1.35-0.45 2.25-0.45 3.6 0 1.35-0.45 2.7-0.9 4.5-0.45 1.35-0.45 2.25-0.9 2.7 0 0.45-0.45 0.9-0.9 2.7l0 0 0 0c1.35 0 2.25 0 3.6 0 0.9 0 2.25 0 3.6 0l0 0 0 0c0.45-1.35 0.45-1.8 0.45-2.25 0-0.9 0.45-1.8 0.9-4.5 0.45-1.35 0.45-2.7 0.9-3.6C722.15 511.1 722.15 509.75 722.6 508.4L722.6 508.4 722.6 508.4z" p-id="4386"></path><path d="M689.3 509.75c0 0 4.05-16.2 4.5-18 0 0 0 0 0 0-5.4 0-7.2 0-7.65 0 0 0.9-4.05 18-4.05 18-0.9 3.6-1.35 5.85-3.15 7.65-1.35 0.9-2.25 1.35-4.05 1.35-2.25 0-3.6-1.35-4.05-3.6l0-0.9c0 0 0.9-4.5 0.9-4.5 0 0 4.05-15.3 4.5-17.55 0 0 0 0 0 0-7.65 0-9 0-9 0 0 0-0.45 0.9-0.45 0.9l-4.05 17.55-0.45 1.35-0.45 4.95c0 1.35 0.45 2.7 0.9 3.6 1.8 3.15 6.75 3.6 9.9 3.6l0 0c3.6 0 7.2-0.9 9.45-2.25 4.05-2.25 5.4-6.3 6.3-9.45L689.3 509.75z" p-id="4387"></path><path d="M722.6 503c-1.35-0.9-4.05-0.45-5.85 0.45-1.8 1.35-1.8 2.7-0.45 3.6 1.35 0.9 4.05 0.45 5.85-0.45C723.95 505.7 723.95 503.9 722.6 503z" p-id="4388"></path><path d="M707.3 504.35C707.3 504.35 707.3 504.35 707.3 504.35l7.65-33.3c1.35-6.75 7.65-12.15 14.4-13.5l-2.7 0c-6.75 0.9-12.6 6.75-14.4 13.5l-8.1 33.75c-0.45 0-0.9 0.45-0.9 0.45-0.45 0.45-0.9 0.45-1.8 0.9l0.45-1.8-0.45-0.45c-3.15 0.9-4.05 0.9-7.2 1.35l-0.45 0c-0.45 3.15-0.9 5.4-1.8 10.8-0.45 2.25-0.9 4.5-1.35 6.3l0 0 0 0.45c3.15 0 4.05 0 6.75 0l0.45-0.45c0.45-1.8 0.45-2.25 1.35-5.85 0.45-1.8 0.9-5.4 1.35-6.75 0.9-0.45 1.35-0.45 1.8-0.45 0 0 0.45 0 0.45 0l-15.75 67.05c-1.8 7.2 2.7 13.5 10.35 13.5l2.7 0c-7.2 0-12.15-5.85-10.35-13.5l12.6-53.55c2.25 0 3.15 0 5.4 0l0.45-0.45c0.45-2.7 0.45-3.6 1.35-7.65l0.45-1.8c0.9-3.6 1.35-5.4 0.45-7.2C710.45 504.8 708.65 504.35 707.3 504.35z" p-id="4389"></path><path d="M795.05 543.95L795.05 543.95l7.2 0-0.9 3.15-7.2 0-0.9 3.6 6.3 0-4.95 6.75c-0.45 0.45-0.45 0.9-0.9 0.9-0.45 0-0.9 0.45-1.35 0.45l-1.8 0-1.35 4.05 4.5 0c2.25 0 4.05-0.9 4.95-2.7l3.15-4.5 0.9 4.5c0 0.9 0.9 1.35 1.35 1.35 0.45 0 0.9 0.45 1.8 0.9 0.9 0 1.35 0 1.8 0l2.25 0 1.35-4.5-0.9 0c-0.45 0-1.35 0-1.35-0.45 0 0 0-0.45-0.45-0.9l-0.9-4.5L804.5 552.05l1.35-1.35 7.2 0 0.9-3.6-6.75 0 0.9-3.15 6.75 0 1.35-4.05-19.8 0L795.05 543.95z" p-id="4390"></path><path d="M753.2 543.95L753.2 544.4 753.2 544.4Z" p-id="4391"></path><path d="M827.45 505.7L827.45 505.7C827 505.7 827 506.15 827.45 505.7L827.45 505.7c-2.7 5.4-2.25 4.5-4.5 8.55 0 0 0-0.45 0-0.45l-0.45-9-0.45-0.45c-3.6 0.45-3.6 0.9-6.75 1.35l-0.45 0c0 0 0 0.45 0 0.45l0 0c0.45 2.25 0.45 1.35 0.9 4.95 0 1.35 0.45 3.15 0.45 4.5 0.45 2.7 0.45 4.05 0.9 7.65-2.25 3.6-2.7 4.95-4.5 8.1l-1.35 2.25 0 0c0 0.45-0.45 0.45-0.45 0.45-0.45 0-0.45 0-0.9 0L809 534.05l-1.35 4.05 4.05 0c2.25 0 4.05-1.35 4.95-2.7l18-31.05-0.45-0.45C831.05 505.25 830.15 505.25 827.45 505.7z" p-id="4392"></path></svg>