<?xml version="1.0" standalone="no"?><!DOCTYPE svg PUBLIC "-//W3C//DTD SVG 1.1//EN" "http://www.w3.org/Graphics/SVG/1.1/DTD/svg11.dtd"><svg t="1532658269082" class="icon" style="" viewBox="0 0 1170 1024" version="1.1" xmlns="http://www.w3.org/2000/svg" p-id="3675" xmlns:xlink="http://www.w3.org/1999/xlink" width="228.515625" height="200"><defs><style type="text/css"></style></defs><path d="M585.142857 646.285714q0-36.571429-5.142857-67.142857t-16.857143-58.857143-34.571428-44.571428-55.428572-16.285715q-3.428571 2.285714-17.142857 10.285715t-21.428571 12.285714T414.285714 492t-24.571428 8.285714-24 2.571429-24-2.571429-24.571429-8.285714-20.285714-10T275.428571 469.714286t-17.142857-10.285715q-32.571429 0-55.428571 16.285715t-34.571429 44.571428-16.857143 58.857143-5.142857 67.142857 21.142857 60.857143 52 24.285714h292.571429q30.857143 0 52-24.285714t21.142857-60.857143zM495.428571 349.142857q0-53.714286-38-91.714286T365.714286 219.428571t-91.714286 38T236 349.142857t38 91.714286T365.714286 478.857143t91.714285-38T495.428571 349.142857z m528.571429 290.857143v-36.571429q0-8-5.142857-13.142857t-13.142857-5.142857h-329.142857q-8 0-13.142858 5.142857t-5.142857 13.142857v36.571429q0 8 5.142857 13.142857t13.142858 5.142857h329.142857q8 0 13.142857-5.142857t5.142857-13.142857z m0-148.571429v-32q0-8.571429-6-14.571428T1003.428571 438.857143h-324.571428q-8.571429 0-14.571429 6T658.285714 459.428571v32q0 8.571429 6 14.571429T678.857143 512h324.571428q8.571429 0 14.571429-6T1024 491.428571z m0-144v-36.571428q0-8-5.142857-13.142857t-13.142857-5.142857h-329.142857q-8 0-13.142858 5.142857t-5.142857 13.142857v36.571428q0 8 5.142857 13.142858t13.142858 5.142857h329.142857q8 0 13.142857-5.142857t5.142857-13.142858z m146.285714-182.857142v694.857142q0 37.714286-26.857143 64.571429t-64.571428 26.857143h-201.142857v-54.857143q0-8-5.142857-13.142857t-13.142858-5.142857h-36.571428q-8 0-13.142857 5.142857t-5.142857 13.142857v54.857143H365.714286v-54.857143q0-8-5.142857-13.142857t-13.142858-5.142857h-36.571428q-8 0-13.142857 5.142857t-5.142857 13.142857v54.857143H91.428571q-37.714286 0-64.571428-26.857143T0 859.428571V164.571429q0-37.714286 26.857143-64.571429t64.571428-26.857143h987.428572q37.714286 0 64.571428 26.857143t26.857143 64.571429z" p-id="3676"></path></svg>