<?xml version="1.0" standalone="no"?><!DOCTYPE svg PUBLIC "-//W3C//DTD SVG 1.1//EN" "http://www.w3.org/Graphics/SVG/1.1/DTD/svg11.dtd"><svg t="1532658436727" class="icon" style="" viewBox="0 0 1024 1024" version="1.1" xmlns="http://www.w3.org/2000/svg" p-id="6886" xmlns:xlink="http://www.w3.org/1999/xlink" width="200" height="200"><defs><style type="text/css"></style></defs><path d="M84.48 437.720615l0 524.8-20.48 0L64 1024l83.219692 0L147.219692 483.209846l326.459077-113.309538 0 647.758769 232.920615 0 0-61.558154-48.009846 0L658.589538 355.879385l-122.840615-72.349538-135.089231 46.749538L400.659692 242.569846l326.419692-147.849846 0 925.380923 232.96 0 0-61.952-47.970462 0L912.068923 76.169846 787.180308 0 340.519385 205.430154l0 145.289846L84.48 437.720615zM184.989538 518.380308l0 94.129231 241.270154-69.12 0-106.889846L184.989538 518.380308zM184.989538 651.500308l0 92.790154 241.270154-44.819692L426.259692 590.769231 184.989538 651.500308zM184.989538 786.589538l0 92.199385 241.270154-20.519385 0-108.859077L184.989538 786.589538zM184.32 923.490462l0 92.199385 241.309538 0 0-108.819692L184.32 923.490462z" p-id="6887"></path></svg>