<?xml version="1.0" standalone="no"?><!DOCTYPE svg PUBLIC "-//W3C//DTD SVG 1.1//EN" "http://www.w3.org/Graphics/SVG/1.1/DTD/svg11.dtd"><svg t="1532659772481" class="icon" style="" viewBox="0 0 1024 1024" version="1.1" xmlns="http://www.w3.org/2000/svg" p-id="8219" xmlns:xlink="http://www.w3.org/1999/xlink" width="200" height="200"><defs><style type="text/css"></style></defs><path d="M325.824 465.472l372.352 0L698.176 325.824c0-51.392-18.176-95.296-54.592-131.648C607.232 157.824 563.392 139.648 512 139.648S416.704 157.824 380.352 194.176C344 230.528 325.824 274.432 325.824 325.824L325.824 465.472 325.824 465.472zM930.944 535.296l0 418.88c0 19.392-6.784 35.904-20.352 49.408C897.024 1017.28 880.512 1024 861.056 1024L162.88 1024c-19.392 0-35.904-6.72-49.408-20.352-13.568-13.568-20.352-30.08-20.352-49.408L93.12 535.296c0-19.392 6.784-35.904 20.352-49.472 13.568-13.568 30.016-20.352 49.408-20.352l23.296 0L186.176 325.824c0-89.216 32-165.824 96-229.824S422.784 0 512 0c89.216 0 165.824 32 229.824 96s96 140.608 96 229.824l0 139.648 23.232 0c19.456 0 35.968 6.784 49.472 20.352C924.096 499.392 930.944 515.904 930.944 535.296L930.944 535.296zM930.944 535.296" p-id="8220"></path></svg>