<?xml version="1.0" standalone="no"?><!DOCTYPE svg PUBLIC "-//W3C//DTD SVG 1.1//EN" "http://www.w3.org/Graphics/SVG/1.1/DTD/svg11.dtd"><svg t="1534127423545" class="icon" style="" viewBox="0 0 1024 1024" version="1.1" xmlns="http://www.w3.org/2000/svg" p-id="6718" xmlns:xlink="http://www.w3.org/1999/xlink" width="200" height="200"><defs><style type="text/css"></style></defs><path d="M1016.20822222 851.01114287l-52.88025397-36.25244445c0-6.79619048 2.30603175-13.59238095 2.30603175-22.66006349s0-15.84761905-2.30603175-22.66107936l48.28444444-38.50666667c4.59580952-4.54196825 4.59580952-9.04939683 2.28977778-13.59238095l-45.97942858-79.26755556c-2.2887619-2.27047619-6.88355556-4.54196825-13.78336506-2.27047619l-57.47403176 22.66006349c-11.49460317-9.05142857-25.2952381-15.86387302-39.09587301-22.66006349l-9.18958731-58.89625398c2.2887619-6.77892063-4.59377778-11.30361905-9.20584126-11.30361904h-91.97612698c-4.59377778 0-11.49460317 4.52469841-11.49460318 9.04939683l-9.18857143 61.15047619c-13.80063492 4.52469841-25.2952381 13.59238095-39.07961905 22.66006349l-55.20253968-22.66006349c-6.88253968-2.27149206-11.47733333 0-16.08939683 4.52469841l-45.97841269 79.2848254c-2.30603175 2.27149206 0 9.0504127 4.61206349 13.59238095l48.26717461 36.23619048c0 6.81346032-2.2887619 13.59238095-2.28876191 22.66006349s0 15.86387302 2.28876191 22.66006349l-48.26819048 38.52393651c-4.61206349 4.52469841-4.61206349 9.0504127-2.30603176 13.57511111l45.97942858 79.2848254c2.30603175 2.27149206 6.88355556 4.52469841 13.78336508 2.27149206l57.47403174-22.6600635c11.49460317 9.04939683 25.2952381 15.8455873 39.09587303 22.6600635l9.1895873 58.87796826c0 4.54298413 4.61206349 9.0504127 11.49460317 9.05041269h91.97612698c4.59377778 0 11.49460317-4.52571429 11.49460317-9.05041269l9.18857143-58.87796826c13.80063492-6.81447619 27.584-13.59238095 39.07860318-22.6600635l57.47403175 22.6600635c4.61206349 2.25320635 11.49561905 0 13.80165079-4.54298412l45.9784127-79.26755556c2.34057143-4.54196825 2.34057143-11.32088889-2.27047619-13.59238095z m-223.0135873 20.38857143c-43.69066667 0-80.48050794-36.25244444-80.48050794-79.28380953s36.78984127-79.26857143 80.48050794-79.26857143 80.48152381 36.23619048 80.48152381 79.26857143-36.79085714 79.2848254-80.48152381 79.2848254z m-293.28253969-80.41142858c0-153.21193651 124.18946032-277.40038095 277.40139683-277.40038095 11.77193651 0 23.30209524 0.97015873 34.67479365 2.39238095V62.81050795c0-28.72888889-23.28380952-52.01269841-52.01269841-52.01269842H66.47361905c-28.72888889 0-52.01269841 23.28380952-52.01269843 52.01269842v866.87898412c0 28.72888889 23.28380952 52.01269841 52.01269843 52.01269842h509.74171427c-47.17612698-49.72495238-76.30222222-116.7512381-76.30222221-190.71390477zM101.1484127 114.82320636h624.15238095v52.01269841H101.1484127v-52.01269841z m0 225.38869841h589.4775873v52.01269841H101.1484127v-52.01269841z m0 208.05079365h450.77638095v52.01269842H101.1484127v-52.01269842z m381.42679365 260.06349207H101.1484127V756.31349207h381.42679365v52.01269842z" p-id="6719"></path></svg>