<?xml version="1.0" standalone="no"?><!DOCTYPE svg PUBLIC "-//W3C//DTD SVG 1.1//EN" "http://www.w3.org/Graphics/SVG/1.1/DTD/svg11.dtd"><svg t="1534127187002" class="icon" style="" viewBox="0 0 1024 1024" version="1.1" xmlns="http://www.w3.org/2000/svg" p-id="2812" xmlns:xlink="http://www.w3.org/1999/xlink" width="200" height="200"><defs><style type="text/css"></style></defs><path d="M908.8 721.066667h-29.866667V682.666667c0-40.533333-34.133333-74.666667-76.8-74.666667S725.333333 642.133333 725.333333 682.666667v38.4h-29.866666c-23.466667 0-42.666667 19.2-42.666667 40.533333v123.733333c0 23.466667 19.2 40.533333 42.666667 40.533334h213.333333c23.466667 0 42.666667-19.2 42.666667-40.533334v-123.733333c0-21.333333-19.2-40.533333-42.666667-40.533333zM765.866667 682.666667c0-19.2 14.933333-34.133333 34.133333-34.133334s34.133333 14.933333 34.133333 34.133334v38.4h-68.266666V682.666667z" p-id="2813"></path><path d="M558.933333 821.333333c0-147.2 119.466667-264.533333 264.533334-264.533333 40.533333 0 78.933333 8.533333 113.066666 25.6 8.533333-6.4 14.933333-17.066667 14.933334-27.733333v-104.533334c0-19.2-14.933333-34.133333-34.133334-34.133333h-59.733333c-14.933333 0-27.733333-8.533333-32-21.333333-4.266667-14.933333-10.666667-29.866667-19.2-44.8-6.4-12.8-4.266667-27.733333 6.4-38.4l38.4-38.4c17.066667-17.066667 17.066667-38.4 4.266667-51.2L782.933333 149.333333c-12.8-12.8-34.133333-12.8-46.933333 0l-42.666667 42.666667c-10.666667 10.666667-25.6 12.8-38.4 6.4l-44.8-19.2c-12.8-4.266667-21.333333-17.066667-21.333333-32V93.866667c0-25.6-14.933333-40.533333-34.133333-40.533334h-104.533334c-19.2 0-34.133333 14.933333-34.133333 34.133334v59.733333c0 14.933333-8.533333 27.733333-21.333333 32-14.933333 4.266667-29.866667 10.666667-44.8 19.2-12.8 6.4-27.733333 4.266667-38.4-6.4l-42.666667-42.666667c-12.8-14.933333-34.133333-14.933333-46.933333 0L149.333333 221.866667c-12.8 12.8-12.8 34.133333 0 46.933333l42.666667 42.666667c10.666667 10.666667 12.8 25.6 6.4 38.4l-19.2 44.8c-4.266667 12.8-17.066667 21.333333-32 21.333333H87.466667c-19.2 0-34.133333 14.933333-34.133334 34.133333V554.666667c0 19.2 14.933333 34.133333 34.133334 34.133333h59.733333c14.933333 0 27.733333 8.533333 32 21.333333 4.266667 14.933333 10.666667 29.866667 19.2 44.8 6.4 12.8 2.133333 27.733333-6.4 38.4l-38.4 38.4c-17.066667 17.066667-17.066667 36.266667-4.266667 51.2l74.666667 74.666667c12.8 12.8 34.133333 12.8 46.933333 0l42.666667-42.666667c10.666667-10.666667 25.6-12.8 38.4-6.4l44.8 19.2c12.8 4.266667 21.333333 17.066667 21.333333 32v53.333334c0 25.6 14.933333 40.533333 34.133334 40.533333H554.666667c12.8 0 23.466667-6.4 27.733333-17.066667-14.933333-38.4-23.466667-74.666667-23.466667-115.2z m-27.733333-172.8c-104.533333 19.2-196.266667-70.4-174.933333-174.933333 10.666667-59.733333 57.6-106.666667 117.333333-117.333333 104.533333-19.2 196.266667 70.4 174.933333 174.933333-10.666667 59.733333-57.6 106.666667-117.333333 117.333333z" p-id="2814"></path></svg>