<?xml version="1.0" standalone="no"?><!DOCTYPE svg PUBLIC "-//W3C//DTD SVG 1.1//EN" "http://www.w3.org/Graphics/SVG/1.1/DTD/svg11.dtd"><svg t="1532658785792" class="icon" style="" viewBox="0 0 1024 1024" version="1.1" xmlns="http://www.w3.org/2000/svg" p-id="7559" xmlns:xlink="http://www.w3.org/1999/xlink" width="200" height="200"><defs><style type="text/css"></style></defs><path d="M54.470508 100.286092c0-11.872051 9.480559-23.37399 21.523431-25.751248 0 0 375.805936-74.534844 435.593244-74.534844s436.902871 74.648725 436.902871 74.648725a27.046639 27.046639 0 0 1 20.996733 25.623132v389.172669c0 142.962841-96.214861 324.716258-216.373115 404.147967 0 0-178.194648 130.393272-238.878765 130.393272S271.356085 892.396747 271.356085 892.396747C151.567943 812.822687 54.470508 632.435838 54.470508 489.444526z m425.17317 177.568304l-97.125905 249.825537c-3.444888 8.868451 1.423507 16.427275 11.203003 16.427275h93.253965c9.537499 0 15.943282 7.815055 13.950372 17.4522l-30.235296 145.795621c-7.928936 38.221172 4.056996 43.445444 26.733468 11.829346L683.418753 459.792869c5.694029-7.886231 2.291847-14.405894-7.501884-14.647891l-116.257843-2.94666c-9.964551-0.241996-14.53401-7.629999-10.647835-16.455745l65.253576-148.372169c3.829235-8.711865-0.868339-15.985987-10.647835-15.985988h-99.901745c-9.62291 0-20.541211 7.345298-24.071509 16.427275z" fill="" p-id="7560"></path></svg>