<?xml version="1.0" standalone="no"?><!DOCTYPE svg PUBLIC "-//W3C//DTD SVG 1.1//EN" "http://www.w3.org/Graphics/SVG/1.1/DTD/svg11.dtd"><svg t="1534127373631" class="icon" style="" viewBox="0 0 1024 1024" version="1.1" xmlns="http://www.w3.org/2000/svg" p-id="6021" xmlns:xlink="http://www.w3.org/1999/xlink" width="200" height="200"><defs><style type="text/css"></style></defs><path d="M666.589867 580.266667l-159.7952 0 0-34.133333 229.239467 0c31.453867-10.871467 65.092267-17.066667 100.2496-17.066667 35.959467 0 70.331733 6.5024 102.4 17.851733L938.683733 153.6c0-28.279467-22.920533-51.2-51.2-51.2L68.266667 102.4C39.9872 102.4 17.066667 125.320533 17.066667 153.6l0 580.266667c0 28.279467 22.920533 51.2 51.2 51.2l465.408 0C548.010667 699.716267 597.282133 626.295467 666.589867 580.266667zM245.8624 256c34.7648 0 62.941867 29.1328 62.941867 65.0752s-28.177067 65.0752-62.941867 65.0752-62.941867-29.1328-62.941867-65.0752S211.114667 256 245.8624 256zM238.933333 631.466667c-62.8736 0-118.545067-27.904-153.770667-70.894933 6.314667-73.454933 72.686933-131.259733 153.770667-131.259733s147.456 57.821867 153.787733 131.259733C357.461333 603.562667 301.806933 631.466667 238.933333 631.466667zM426.666667 256l443.733333 0 0 34.133333L426.666667 290.133333 426.666667 256zM491.383467 409.6 870.4 409.6l0 34.133333L491.383467 443.733333 491.383467 409.6z" p-id="6022"></path><path d="M1003.741867 817.988267l-44.049067-30.190933c0-5.649067 1.911467-11.3152 1.911467-18.858667s0-13.192533-1.911467-18.858667l40.209067-32.068267c3.84-3.7888 3.84-7.543467 1.911467-11.332267l-38.2976-66.030933c-1.911467-1.877333-5.751467-3.771733-11.502933-1.877333l-47.872 18.858667c-9.591467-7.543467-21.060267-13.192533-32.546133-18.858667l-7.662933-49.0496C865.860267 584.0384 860.1088 580.266667 856.285867 580.266667l-76.5952 0c-3.84 0-9.5744 3.771733-9.5744 7.5264l-7.662933 50.944c-11.485867 3.771733-21.060267 11.3152-32.546133 18.858667l-45.960533-18.858667c-5.751467-1.877333-9.5744 0-13.397333 3.771733l-38.2976 66.030933c-1.911467 1.8944 0 7.543467 3.84 11.332267l40.192 30.190933c0 5.666133-1.8944 11.3152-1.8944 18.858667s0 13.2096 1.8944 18.858667l-40.192 32.085333c-3.84 3.771733-3.84 7.5264-1.911467 11.3152l38.2976 66.030933c1.911467 1.877333 5.7344 3.771733 11.485867 1.877333l47.889067-18.858667c9.5744 7.543467 21.060267 13.2096 32.546133 18.858667l7.662933 49.066667c0 3.771733 3.822933 7.5264 9.5744 7.5264l76.5952 0c3.84 0 9.591467-3.771733 9.591467-7.5264l7.645867-49.066667c11.502933-5.649067 22.9888-11.3152 32.5632-18.858667l47.872 18.858667c3.84 1.877333 9.591467 0 11.502933-3.771733l38.2976-66.030933C1007.581867 825.531733 1007.581867 819.882667 1003.741867 817.988267zM817.988267 834.9696c-36.386133 0-67.0208-30.190933-67.0208-66.030933s30.634667-66.030933 67.0208-66.030933 67.037867 30.190933 67.037867 66.030933S854.3744 834.9696 817.988267 834.9696z" p-id="6023"></path></svg>