<?xml version="1.0" standalone="no"?><!DOCTYPE svg PUBLIC "-//W3C//DTD SVG 1.1//EN" "http://www.w3.org/Graphics/SVG/1.1/DTD/svg11.dtd"><svg t="1534127280776" class="icon" style="" viewBox="0 0 1024 1024" version="1.1" xmlns="http://www.w3.org/2000/svg" p-id="3506" xmlns:xlink="http://www.w3.org/1999/xlink" width="200" height="200"><defs><style type="text/css"></style></defs><path d="M804.571429 906.971429c58.514286 0 102.4-43.885714 102.4-102.4 0-58.514286-43.885714-102.4-102.4-102.4-58.514286 0-102.4 43.885714-102.4 102.4 0 51.2 43.885714 102.4 102.4 102.4zM607.085714 629.028571c-43.885714 58.514286-65.828571 117.028571-73.142857 190.171429 0 29.257143-7.314286 58.514286 7.314286 95.085714 14.628571 43.885714-21.942857 80.457143-65.828572 80.457143H65.828571c-36.571429 0-65.828571-29.257143-65.828571-73.142857s14.628571-95.085714 43.885714-124.342857c73.142857-65.828571 336.457143-87.771429 336.457143-197.485714 0-43.885714-109.714286-87.771429-109.714286-219.428572V248.685714c0-212.114286 190.171429-219.428571 219.428572-219.428571 29.257143 0 219.428571 7.314286 219.428571 219.428571v131.657143c0 131.657143-109.714286 175.542857-109.714285 219.428572 0 14.628571 0 21.942857 7.314285 29.257142z m95.085715 21.942858c14.628571-7.314286 36.571429-21.942857 58.514285-21.942858v-36.571428c0-7.314286 7.314286-7.314286 7.314286-7.314286h58.514286c7.314286 0 7.314286 7.314286 7.314285 7.314286v36.571428c21.942857 7.314286 36.571429 14.628571 58.514286 21.942858l21.942857-21.942858c7.314286-7.314286 7.314286-7.314286 14.628572 0l43.885714 43.885715c7.314286 7.314286 7.314286 7.314286 0 14.628571l-21.942857 21.942857c7.314286 14.628571 21.942857 36.571429 21.942857 58.514286h36.571429c7.314286 0 7.314286 7.314286 7.314285 7.314286v58.514285c0 7.314286-7.314286 7.314286-7.314285 7.314286h-36.571429c-7.314286 21.942857-14.628571 36.571429-21.942857 58.514286l21.942857 21.942857c7.314286 7.314286 7.314286 7.314286 0 14.628571l-43.885714 43.885715c-7.314286 7.314286-7.314286 7.314286-14.628572 0l-21.942857-21.942857c-14.628571 7.314286-36.571429 21.942857-58.514286 21.942857v36.571428c0 7.314286-7.314286 7.314286-7.314285 7.314286h-58.514286c-7.314286 0-7.314286-7.314286-7.314286-7.314286v-36.571428c-21.942857-7.314286-36.571429-14.628571-58.514285-21.942857l-21.942858 21.942857c-7.314286 7.314286-7.314286 7.314286-14.628571 0l-43.885714-43.885715c-7.314286-7.314286-7.314286-7.314286 0-14.628571l21.942857-21.942857c-7.314286-14.628571-21.942857-36.571429-21.942857-58.514286H585.142857c-7.314286 0-7.314286-7.314286-7.314286-7.314286v-58.514285c0-7.314286 7.314286-7.314286 7.314286-7.314286h36.571429c7.314286-21.942857 14.628571-36.571429 21.942857-58.514286l-21.942857-29.257143c-7.314286-7.314286-7.314286-7.314286 0-14.628571l43.885714-43.885714c7.314286-7.314286 7.314286-7.314286 14.628571 0l21.942858 29.257143z" p-id="3507"></path></svg>